<svg id="Layer_1" data-name="Layer 1" xmlns="http://www.w3.org/2000/svg" viewBox="0 0 350.5 274"><defs><style>.cls-1{fill:#565759;}</style></defs><path class="cls-1" d="M114.1,1.9c-2.3,2.3-2.8,4.9-3.7,19.3l-.6,10.7-6.6,2.2a136.17,136.17,0,0,0-14.5,6L80.8,44,70.4,35C56.1,22.6,57.3,22.4,39.8,39.7c-7.6,7.6-14.1,14.8-14.5,16.1-.8,3.4.5,5.6,9.6,16,4.5,5.1,8.1,9.5,8.1,9.8s-9.38,13.68-11.8,28.9c-7.41.46-13.8,1.1-13.8,1.1-7.7.6-14,1.2-14.1,1.3-3.1,2.2-3.3,3.4-3.3,24,0,15.9.3,21.1,1.4,22.6s3.4,2,13.7,2.8c17.4,1.2,16.2.7,18.2,7.4a144.13,144.13,0,0,0,5.9,14.6l4.2,8.8-3.6,3.7C30.9,206.2,25,214.1,25,216.7c0,2.1,3.1,5.8,14.2,17,18,18.1,16.8,17.9,31.3,5.4l10.4-8.9,7.4,3.7a123.91,123.91,0,0,0,14.5,6l7,2.2.6,10.7c.9,14.4,1.4,17,3.7,19.3,1.8,1.8,3.4,1.9,22.3,1.9h20.5l1.9-2.5c1.6-2,2.2-4.8,2.7-12.3,1.1-17.4.9-16.8,6.8-18.8,9.9-3.2,15-6.36,17.1-8.6-1.92-2.79-15.75-20.45-16.5-21.4a49.08,49.08,0,0,0-9.1,2.2c-16,5.1-37.4,4.3-53-2.1C72.6,196.6,52.1,160,58.4,124.1c5.1-29.2,39.49-80.81,111-60.2,2.2-2.8,15.4-20.7,16-21.6-1.47-1.5-4.67-3.67-14.6-7.7-7.1-2.4-7.3-2.6-8-6.3-.4-2.1-1-8.3-1.4-13.7-.5-8.6-.9-10.2-3-12.3C156.1,0,155.8,0,136,0,117.5,0,115.9.1,114.1,1.9Z" transform="translate(0 0)"/><path class="cls-1" d="M248.5,109a8.49,8.49,0,0,0-3.2,2.1c-2.3,2.9-23.4,57.2-22.5,58.1.5.5,3.1.8,5.8.6l4.8-.3,2.2-5.5,2.2-5.5,8.8-.5c10-.6,10.6-1.1,8-7.4-1.4-3.5-1.7-3.6-6.5-3.6-2.8,0-5.1-.3-5.1-.8,0-1.3,8.5-23.2,9.1-23.2.3,0,4.5,10,9.4,22.2s9.2,22.9,9.8,23.5c1.3,1.8,10.7,1.7,10.7-.1,0-.7-4.9-13.6-11-28.7-11.3-28.1-13.5-32-18.3-31.8A12.16,12.16,0,0,0,248.5,109Z" transform="translate(0 0)"/><path class="cls-1" d="M103.1,111.2c-7.7,3.9-8.6,7-8.6,28.3s.9,24.4,8.5,28.3c4.2,2.1,5.5,2.2,21,2l16.5-.3v-10l-16.3-.5c-14.7-.4-16.5-.7-17.8-2.4-1.1-1.5-1.4-5.6-1.4-17.2,0-20.5-1.2-19.3,19.5-19.6l16-.3v-10l-16.5-.3C108.5,109,107.2,109.1,103.1,111.2Z" transform="translate(0 0)"/><path class="cls-1" d="M157.5,110.3c-.3.7-.4,14.3-.3,30.2l.3,29,4.8.3,4.7.3V145h29v25.1l4.8-.3,4.7-.3v-60l-4.7-.3-4.8-.3V134H167V109h-4.5C159.7,109,157.7,109.5,157.5,110.3Z" transform="translate(0 0)"/><path class="cls-1" d="M298.4,110.4a16,16,0,0,0-.2,5.2l.3,3.9,10.2.3,10.3.3.2,24.7.3,24.7h10l.3-24.7.2-24.7,10.3-.3,10.2-.3v-10l-25.8-.3C303.3,109,298.9,109.2,298.4,110.4Z" transform="translate(0 0)"/><path class="cls-1" d="M178.2,192.6c-2,1.4-2.2,2.4-2.2,9.8,0,10.6.9,11.6,10.3,11.6,6,0,6.7-.2,6.7-2,0-1.6-.8-1.9-6.2-2.2l-6.3-.3v-14l6.3-.3c5.4-.3,6.2-.6,6.2-2.2,0-1.8-.7-2-6.3-2C182.7,191,179.7,191.5,178.2,192.6Z" transform="translate(0 0)"/><path class="cls-1" d="M199,193c0,1.7.8,1.9,7.3,2.2s7.2.5,7.2,2.3-.8,2-7.2,2.3l-7.3.3V207c0,6.3.2,7,2,7s2-.7,2-5c0-4.9.1-5,2.9-5,2.5,0,3.4.8,5.8,5,2.1,3.7,3.4,5,5.1,5,2.7,0,2.7.1-.2-5-2.3-4.1-2.3-4.3-.5-6.1,2.5-2.5,2.5-8.1.1-10.2-1.4-1.3-3.8-1.7-9.5-1.7C199.7,191,199,191.2,199,193Z" transform="translate(0 0)"/><path class="cls-1" d="M233.1,192.7C231.4,196,225,212,225,213c0,2.1,3.7.9,4.8-1.5.9-2,1.9-2.5,4.7-2.5,3.3,0,3.5-.2,2.5-2a3.61,3.61,0,0,0-2.5-2c-1.9,0-1.9-.9-.1-5.1l1.4-3.3,1.4,3c.8,1.6,2.5,5.5,3.8,8.6,1.6,4.2,2.8,5.8,4.1,5.8,1.1,0,1.9-.5,1.9-1.1,0-2-8-20.3-9.3-21.1C235.7,190.5,234.1,190.9,233.1,192.7Z" transform="translate(0 0)"/><path class="cls-1" d="M253,193c0,1.9.7,2,9,2s9-.1,9-2-.7-2-9-2S253,191.1,253,193Z" transform="translate(0 0)"/><path class="cls-1" d="M277,192.9c0,1.6.8,2,3.8,2.3l3.7.3.3,9.2c.2,8.5.4,9.3,2.2,9.3s2-.7,2-9.5V195h4c3.3,0,4-.3,4-2,0-1.9-.7-2-10-2S277,191.1,277,192.9Z" transform="translate(0 0)"/><path class="cls-1" d="M303,193c0,1.8.7,2,8.5,2s8.5-.2,8.5-2-.7-2-8.5-2S303,191.2,303,193Z" transform="translate(0 0)"/><path class="cls-1" d="M326,193c0,1.7.8,1.9,7.3,2.2s7.2.5,7.2,2.3-.8,2-7.2,2.3l-7.3.3V207c0,6.3.2,7,2,7s2-.7,2-5c0-4.9.1-5,2.9-5,2.5,0,3.4.8,5.8,5,2.1,3.7,3.4,5,5.1,5,2.7,0,2.7.1-.2-5-2.3-4.1-2.3-4.3-.5-6.1,2.5-2.5,2.5-8.1.1-10.2-1.4-1.3-3.8-1.7-9.5-1.7C326.7,191,326,191.2,326,193Z" transform="translate(0 0)"/><path class="cls-1" d="M253.5,202.3a23.41,23.41,0,0,0-.3,6.8c.2,3.6.6,4.4,2.3,4.4s2-.8,2.3-4.8l.3-4.7h6.5c5.7,0,6.5-.2,6.2-1.8-.3-1.4-1.6-1.7-8.5-2C254.4,199.9,254,200,253.5,202.3Z" transform="translate(0 0)"/><path class="cls-1" d="M303.7,200.7c-.4.3-.7,2.7-.7,5.3,0,6.6,1.9,8,10.3,8,6.4,0,6.7-.1,6.7-2.5s-.4-2.4-6.2-2.7-6.3-.5-6.6-2.6,0-2.2,6.2-2.2c5.9,0,6.6-.2,6.6-2s-.7-2-7.8-2C307.9,200,304,200.3,303.7,200.7Z" transform="translate(0 0)"/></svg>